<mxfile host="app.diagrams.net" modified="2023-03-19T15:59:55.570Z" agent="5.0 (Macintosh; Intel Mac OS X 10_15_7) AppleWebKit/537.36 (KHTML, like Gecko) Chrome/111.0.0.0 Safari/537.36" etag="uoIiWeWNk6Vgv_sD5T2t" version="21.0.6" type="github">
  <diagram name="Page-1" id="dkV5qHxUkBkfqH7RIMRn">
    <mxGraphModel dx="2411" dy="1131" grid="1" gridSize="10" guides="1" tooltips="1" connect="1" arrows="1" fold="1" page="1" pageScale="1" pageWidth="850" pageHeight="1100" math="0" shadow="0">
      <root>
        <mxCell id="0" />
        <mxCell id="1" parent="0" />
        <mxCell id="MjZZZFpg-C2qifcn_7-n-27" style="rounded=0;orthogonalLoop=1;jettySize=auto;html=1;exitX=0;exitY=0;exitDx=0;exitDy=0;entryX=0;entryY=0;entryDx=125;entryDy=120;entryPerimeter=0;dashed=1;startArrow=none;startFill=0;endArrow=classic;endFill=1;" edge="1" parent="1" source="MjZZZFpg-C2qifcn_7-n-12" target="MjZZZFpg-C2qifcn_7-n-17">
          <mxGeometry relative="1" as="geometry" />
        </mxCell>
        <mxCell id="MjZZZFpg-C2qifcn_7-n-12" value="" style="ellipse;whiteSpace=wrap;html=1;aspect=fixed;fillColor=#fff2cc;strokeColor=#d6b656;" vertex="1" parent="1">
          <mxGeometry x="500" y="210" width="670" height="670" as="geometry" />
        </mxCell>
        <mxCell id="MjZZZFpg-C2qifcn_7-n-26" value="" style="ellipse;whiteSpace=wrap;html=1;aspect=fixed;fillColor=#f8cecc;strokeColor=#b85450;" vertex="1" parent="1">
          <mxGeometry x="735" y="470" width="200" height="200" as="geometry" />
        </mxCell>
        <mxCell id="MjZZZFpg-C2qifcn_7-n-3" value="Ansible" style="ellipse;whiteSpace=wrap;html=1;aspect=fixed;" vertex="1" parent="1">
          <mxGeometry x="720" y="250" width="80" height="80" as="geometry" />
        </mxCell>
        <mxCell id="MjZZZFpg-C2qifcn_7-n-4" value="ECS, ASG ..." style="ellipse;whiteSpace=wrap;html=1;aspect=fixed;" vertex="1" parent="1">
          <mxGeometry x="570" y="340" width="80" height="80" as="geometry" />
        </mxCell>
        <mxCell id="MjZZZFpg-C2qifcn_7-n-5" value="Kafka" style="ellipse;whiteSpace=wrap;html=1;aspect=fixed;" vertex="1" parent="1">
          <mxGeometry x="690" y="350" width="80" height="80" as="geometry" />
        </mxCell>
        <mxCell id="MjZZZFpg-C2qifcn_7-n-6" value="Zookeeper" style="ellipse;whiteSpace=wrap;html=1;aspect=fixed;" vertex="1" parent="1">
          <mxGeometry x="560" y="460" width="80" height="80" as="geometry" />
        </mxCell>
        <mxCell id="MjZZZFpg-C2qifcn_7-n-7" value="Operation" style="ellipse;whiteSpace=wrap;html=1;aspect=fixed;" vertex="1" parent="1">
          <mxGeometry x="660" y="446" width="80" height="80" as="geometry" />
        </mxCell>
        <mxCell id="MjZZZFpg-C2qifcn_7-n-8" value="error, failure, crash ..." style="ellipse;whiteSpace=wrap;html=1;aspect=fixed;" vertex="1" parent="1">
          <mxGeometry x="930" y="290" width="80" height="80" as="geometry" />
        </mxCell>
        <mxCell id="MjZZZFpg-C2qifcn_7-n-9" value="Experts" style="ellipse;whiteSpace=wrap;html=1;aspect=fixed;" vertex="1" parent="1">
          <mxGeometry x="700" y="750" width="80" height="80" as="geometry" />
        </mxCell>
        <mxCell id="MjZZZFpg-C2qifcn_7-n-10" value="alerts, monitor" style="ellipse;whiteSpace=wrap;html=1;aspect=fixed;" vertex="1" parent="1">
          <mxGeometry x="950" y="430" width="80" height="80" as="geometry" />
        </mxCell>
        <mxCell id="MjZZZFpg-C2qifcn_7-n-11" value="team" style="ellipse;whiteSpace=wrap;html=1;aspect=fixed;" vertex="1" parent="1">
          <mxGeometry x="570" y="660" width="80" height="80" as="geometry" />
        </mxCell>
        <mxCell id="MjZZZFpg-C2qifcn_7-n-13" value="Hire" style="ellipse;whiteSpace=wrap;html=1;aspect=fixed;" vertex="1" parent="1">
          <mxGeometry x="680" y="640" width="80" height="80" as="geometry" />
        </mxCell>
        <mxCell id="MjZZZFpg-C2qifcn_7-n-14" value="Community" style="ellipse;whiteSpace=wrap;html=1;aspect=fixed;fillColor=#d5e8d4;strokeColor=#82b366;" vertex="1" parent="1">
          <mxGeometry x="920" y="700" width="80" height="80" as="geometry" />
        </mxCell>
        <mxCell id="MjZZZFpg-C2qifcn_7-n-15" value="" style="endArrow=none;dashed=1;html=1;dashPattern=1 3;strokeWidth=2;rounded=0;" edge="1" parent="1">
          <mxGeometry width="50" height="50" relative="1" as="geometry">
            <mxPoint x="395" y="560" as="sourcePoint" />
            <mxPoint x="1275" y="560" as="targetPoint" />
          </mxGeometry>
        </mxCell>
        <mxCell id="MjZZZFpg-C2qifcn_7-n-16" value="" style="endArrow=none;dashed=1;html=1;dashPattern=1 3;strokeWidth=2;rounded=0;startArrow=none;" edge="1" parent="1" source="MjZZZFpg-C2qifcn_7-n-1">
          <mxGeometry width="50" height="50" relative="1" as="geometry">
            <mxPoint x="834.5" y="980" as="sourcePoint" />
            <mxPoint x="834.5" y="110" as="targetPoint" />
          </mxGeometry>
        </mxCell>
        <mxCell id="MjZZZFpg-C2qifcn_7-n-17" value="Huge Knowledge Gap (Software -&amp;gt; DevOps)" style="shape=callout;whiteSpace=wrap;html=1;perimeter=calloutPerimeter;" vertex="1" parent="1">
          <mxGeometry x="160" y="80" width="250" height="120" as="geometry" />
        </mxCell>
        <mxCell id="MjZZZFpg-C2qifcn_7-n-31" style="rounded=0;orthogonalLoop=1;jettySize=auto;html=1;entryX=0;entryY=1;entryDx=0;entryDy=0;dashed=1;startArrow=classic;startFill=1;endArrow=none;endFill=0;" edge="1" parent="1" source="MjZZZFpg-C2qifcn_7-n-18" target="MjZZZFpg-C2qifcn_7-n-12">
          <mxGeometry relative="1" as="geometry" />
        </mxCell>
        <mxCell id="MjZZZFpg-C2qifcn_7-n-18" value="No Experts from Company" style="shape=callout;whiteSpace=wrap;html=1;perimeter=calloutPerimeter;" vertex="1" parent="1">
          <mxGeometry x="130" y="920" width="250" height="120" as="geometry" />
        </mxCell>
        <mxCell id="MjZZZFpg-C2qifcn_7-n-29" style="rounded=0;orthogonalLoop=1;jettySize=auto;html=1;entryX=1;entryY=0;entryDx=0;entryDy=0;dashed=1;startArrow=classic;startFill=1;endArrow=none;endFill=0;" edge="1" parent="1" source="MjZZZFpg-C2qifcn_7-n-19" target="MjZZZFpg-C2qifcn_7-n-12">
          <mxGeometry relative="1" as="geometry" />
        </mxCell>
        <mxCell id="MjZZZFpg-C2qifcn_7-n-19" value="No Operation Experiences" style="shape=callout;whiteSpace=wrap;html=1;perimeter=calloutPerimeter;" vertex="1" parent="1">
          <mxGeometry x="1310" y="80" width="250" height="120" as="geometry" />
        </mxCell>
        <mxCell id="MjZZZFpg-C2qifcn_7-n-30" style="rounded=0;orthogonalLoop=1;jettySize=auto;html=1;entryX=1;entryY=1;entryDx=0;entryDy=0;dashed=1;startArrow=classic;startFill=1;endArrow=none;endFill=0;" edge="1" parent="1" source="MjZZZFpg-C2qifcn_7-n-20" target="MjZZZFpg-C2qifcn_7-n-12">
          <mxGeometry relative="1" as="geometry" />
        </mxCell>
        <mxCell id="MjZZZFpg-C2qifcn_7-n-20" value="Explore Experts from Community" style="shape=callout;whiteSpace=wrap;html=1;perimeter=calloutPerimeter;" vertex="1" parent="1">
          <mxGeometry x="1310" y="890" width="250" height="120" as="geometry" />
        </mxCell>
        <mxCell id="MjZZZFpg-C2qifcn_7-n-21" value="" style="shape=image;html=1;verticalAlign=top;verticalLabelPosition=bottom;labelBackgroundColor=#ffffff;imageAspect=0;aspect=fixed;image=https://cdn4.iconfinder.com/data/icons/christmas-2434/128/Artboard_42-128.png" vertex="1" parent="1">
          <mxGeometry x="740" y="605" width="45" height="45" as="geometry" />
        </mxCell>
        <mxCell id="MjZZZFpg-C2qifcn_7-n-22" value="" style="shape=image;html=1;verticalAlign=top;verticalLabelPosition=bottom;labelBackgroundColor=#ffffff;imageAspect=0;aspect=fixed;image=https://cdn4.iconfinder.com/data/icons/game-of-thrones-4/64/game_of_thrones_game_thrones_series_element_fire_flame_heat-128.png" vertex="1" parent="1">
          <mxGeometry x="740" y="477.5" width="45" height="45" as="geometry" />
        </mxCell>
        <mxCell id="MjZZZFpg-C2qifcn_7-n-23" value="" style="shape=image;html=1;verticalAlign=top;verticalLabelPosition=bottom;labelBackgroundColor=#ffffff;imageAspect=0;aspect=fixed;image=https://cdn4.iconfinder.com/data/icons/game-of-thrones-4/64/game_of_thrones_game_thrones_series_ice_fire_-128.png" vertex="1" parent="1">
          <mxGeometry x="880" y="481" width="45" height="45" as="geometry" />
        </mxCell>
        <mxCell id="MjZZZFpg-C2qifcn_7-n-24" value="" style="shape=image;html=1;verticalAlign=top;verticalLabelPosition=bottom;labelBackgroundColor=#ffffff;imageAspect=0;aspect=fixed;image=https://cdn1.iconfinder.com/data/icons/flat-christmas-icons-1/75/_wax_candle-128.png" vertex="1" parent="1">
          <mxGeometry x="885" y="605" width="45" height="45" as="geometry" />
        </mxCell>
        <mxCell id="MjZZZFpg-C2qifcn_7-n-25" value="" style="endArrow=none;dashed=1;html=1;dashPattern=1 3;strokeWidth=2;rounded=0;" edge="1" parent="1" target="MjZZZFpg-C2qifcn_7-n-1">
          <mxGeometry width="50" height="50" relative="1" as="geometry">
            <mxPoint x="834.5" y="980" as="sourcePoint" />
            <mxPoint x="834.5" y="110" as="targetPoint" />
          </mxGeometry>
        </mxCell>
        <mxCell id="MjZZZFpg-C2qifcn_7-n-1" value="Me" style="shape=umlActor;verticalLabelPosition=bottom;verticalAlign=top;html=1;outlineConnect=0;" vertex="1" parent="1">
          <mxGeometry x="820" y="526" width="30" height="60" as="geometry" />
        </mxCell>
        <mxCell id="MjZZZFpg-C2qifcn_7-n-32" value="Enjoy , Good Luck" style="text;html=1;align=center;verticalAlign=middle;resizable=0;points=[];autosize=1;strokeColor=none;fillColor=none;fontSize=29;" vertex="1" parent="1">
          <mxGeometry x="720" y="30" width="260" height="50" as="geometry" />
        </mxCell>
        <mxCell id="MjZZZFpg-C2qifcn_7-n-33" value="Buy Kafka Enterprise" style="ellipse;whiteSpace=wrap;html=1;aspect=fixed;" vertex="1" parent="1">
          <mxGeometry x="990" y="590" width="80" height="80" as="geometry" />
        </mxCell>
      </root>
    </mxGraphModel>
  </diagram>
</mxfile>
